<svg xmlns="http://www.w3.org/2000/svg" viewBox="0 0 1200 620" width="1200" height="620" fill="none" role="img" aria-label="Ișę design tokens — brand color palette" font-family="'Segoe UI', Roboto, Helvetica, Arial, sans-serif">
<rect width="1200" height="620" rx="20" fill="#f9fafb"/>
<rect x="0.5" y="0.5" width="1199" height="619" rx="19.5" fill="none" stroke="#e5e7eb"/>
<rect x="0" y="0" width="8" height="620" rx="4" fill="#ee1e25"/>
<text x="48" y="64" font-size="28" font-weight="800" fill="#111827">Ișę · Design Tokens</text>
<text x="48" y="90" font-size="14" fill="#6b7280">Brand palette — generated from <tspan font-family="monospace" fill="#374151">color.json</tspan> via Style Dictionary</text>
<text x="1152" y="64" text-anchor="end" font-size="13" font-family="monospace" fill="#9ca3af">--ise-color-*</text>
<text x="48" y="138" font-size="12.5" font-weight="700" letter-spacing="1.5" fill="#374151">BRAND · PRIMARY</text>
<rect x="48" y="154" width="96" height="100" rx="14" fill="#fff0f0"/>
<text x="96" y="192" text-anchor="middle" font-size="15" font-weight="700" fill="#111827">50</text>
<text x="96" y="226" text-anchor="middle" font-size="11" font-family="monospace" fill="#111827" fill-opacity="0.85">#fff0f0</text>
<rect x="160" y="154" width="96" height="100" rx="14" fill="#ffd6d6"/>
<text x="208" y="192" text-anchor="middle" font-size="15" font-weight="700" fill="#111827">100</text>
<text x="208" y="226" text-anchor="middle" font-size="11" font-family="monospace" fill="#111827" fill-opacity="0.85">#ffd6d6</text>
<rect x="272" y="154" width="96" height="100" rx="14" fill="#ffadad"/>
<text x="320" y="192" text-anchor="middle" font-size="15" font-weight="700" fill="#111827">200</text>
<text x="320" y="226" text-anchor="middle" font-size="11" font-family="monospace" fill="#111827" fill-opacity="0.85">#ffadad</text>
<rect x="384" y="154" width="96" height="100" rx="14" fill="#ff7a7a"/>
<text x="432" y="192" text-anchor="middle" font-size="15" font-weight="700" fill="#ffffff">300</text>
<text x="432" y="226" text-anchor="middle" font-size="11" font-family="monospace" fill="#ffffff" fill-opacity="0.85">#ff7a7a</text>
<rect x="496" y="154" width="96" height="100" rx="14" fill="#f54040"/>
<text x="544" y="192" text-anchor="middle" font-size="15" font-weight="700" fill="#ffffff">400</text>
<text x="544" y="226" text-anchor="middle" font-size="11" font-family="monospace" fill="#ffffff" fill-opacity="0.85">#f54040</text>
<rect x="608" y="154" width="96" height="100" rx="14" fill="#ee1e25"/>
<text x="656" y="192" text-anchor="middle" font-size="15" font-weight="700" fill="#ffffff">500</text>
<text x="656" y="226" text-anchor="middle" font-size="11" font-family="monospace" fill="#ffffff" fill-opacity="0.85">#ee1e25</text>
<rect x="605" y="151" width="102" height="106" rx="16" fill="none" stroke="#111827" stroke-width="2.5"/>
<text x="656" y="142" text-anchor="middle" font-size="11" font-weight="700" fill="#111827">★ BRAND RED</text>
<rect x="720" y="154" width="96" height="100" rx="14" fill="#cc0e0f"/>
<text x="768" y="192" text-anchor="middle" font-size="15" font-weight="700" fill="#ffffff">600</text>
<text x="768" y="226" text-anchor="middle" font-size="11" font-family="monospace" fill="#ffffff" fill-opacity="0.85">#cc0e0f</text>
<rect x="832" y="154" width="96" height="100" rx="14" fill="#a80c0c"/>
<text x="880" y="192" text-anchor="middle" font-size="15" font-weight="700" fill="#ffffff">700</text>
<text x="880" y="226" text-anchor="middle" font-size="11" font-family="monospace" fill="#ffffff" fill-opacity="0.85">#a80c0c</text>
<rect x="944" y="154" width="96" height="100" rx="14" fill="#860d0d"/>
<text x="992" y="192" text-anchor="middle" font-size="15" font-weight="700" fill="#ffffff">800</text>
<text x="992" y="226" text-anchor="middle" font-size="11" font-family="monospace" fill="#ffffff" fill-opacity="0.85">#860d0d</text>
<rect x="1056" y="154" width="96" height="100" rx="14" fill="#5c0808"/>
<text x="1104" y="192" text-anchor="middle" font-size="15" font-weight="700" fill="#ffffff">900</text>
<text x="1104" y="226" text-anchor="middle" font-size="11" font-family="monospace" fill="#ffffff" fill-opacity="0.85">#5c0808</text>
<text x="48" y="308" font-size="12.5" font-weight="700" letter-spacing="1.5" fill="#374151">NEUTRAL</text>
<rect x="48.0" y="324" width="82.8" height="84" rx="10" fill="#ffffff" stroke="#e5e7eb" stroke-width="0.75"/>
<text x="89" y="358" text-anchor="middle" font-size="12" font-weight="700" fill="#111827">0</text>
<text x="89" y="382" text-anchor="middle" font-size="9" font-family="monospace" fill="#111827" fill-opacity="0.85">#ffffff</text>
<rect x="140.8" y="324" width="82.8" height="84" rx="10" fill="#f9fafb" stroke="#e5e7eb" stroke-width="0.75"/>
<text x="182" y="358" text-anchor="middle" font-size="12" font-weight="700" fill="#111827">50</text>
<text x="182" y="382" text-anchor="middle" font-size="9" font-family="monospace" fill="#111827" fill-opacity="0.85">#f9fafb</text>
<rect x="233.7" y="324" width="82.8" height="84" rx="10" fill="#f3f4f6" stroke="#e5e7eb" stroke-width="0.75"/>
<text x="275" y="358" text-anchor="middle" font-size="12" font-weight="700" fill="#111827">100</text>
<text x="275" y="382" text-anchor="middle" font-size="9" font-family="monospace" fill="#111827" fill-opacity="0.85">#f3f4f6</text>
<rect x="326.5" y="324" width="82.8" height="84" rx="10" fill="#e5e7eb" stroke="#e5e7eb" stroke-width="0.75"/>
<text x="368" y="358" text-anchor="middle" font-size="12" font-weight="700" fill="#111827">200</text>
<text x="368" y="382" text-anchor="middle" font-size="9" font-family="monospace" fill="#111827" fill-opacity="0.85">#e5e7eb</text>
<rect x="419.3" y="324" width="82.8" height="84" rx="10" fill="#d1d5db" stroke="#e5e7eb" stroke-width="0.75"/>
<text x="461" y="358" text-anchor="middle" font-size="12" font-weight="700" fill="#111827">300</text>
<text x="461" y="382" text-anchor="middle" font-size="9" font-family="monospace" fill="#111827" fill-opacity="0.85">#d1d5db</text>
<rect x="512.2" y="324" width="82.8" height="84" rx="10" fill="#9ca3af" stroke="#e5e7eb" stroke-width="0.75"/>
<text x="554" y="358" text-anchor="middle" font-size="12" font-weight="700" fill="#ffffff">400</text>
<text x="554" y="382" text-anchor="middle" font-size="9" font-family="monospace" fill="#ffffff" fill-opacity="0.85">#9ca3af</text>
<rect x="605.0" y="324" width="82.8" height="84" rx="10" fill="#6b7280" stroke="#e5e7eb" stroke-width="0.75"/>
<text x="646" y="358" text-anchor="middle" font-size="12" font-weight="700" fill="#ffffff">500</text>
<text x="646" y="382" text-anchor="middle" font-size="9" font-family="monospace" fill="#ffffff" fill-opacity="0.85">#6b7280</text>
<rect x="697.8" y="324" width="82.8" height="84" rx="10" fill="#4b5563" stroke="#e5e7eb" stroke-width="0.75"/>
<text x="739" y="358" text-anchor="middle" font-size="12" font-weight="700" fill="#ffffff">600</text>
<text x="739" y="382" text-anchor="middle" font-size="9" font-family="monospace" fill="#ffffff" fill-opacity="0.85">#4b5563</text>
<rect x="790.7" y="324" width="82.8" height="84" rx="10" fill="#374151" stroke="#e5e7eb" stroke-width="0.75"/>
<text x="832" y="358" text-anchor="middle" font-size="12" font-weight="700" fill="#ffffff">700</text>
<text x="832" y="382" text-anchor="middle" font-size="9" font-family="monospace" fill="#ffffff" fill-opacity="0.85">#374151</text>
<rect x="883.5" y="324" width="82.8" height="84" rx="10" fill="#1f2937" stroke="#e5e7eb" stroke-width="0.75"/>
<text x="925" y="358" text-anchor="middle" font-size="12" font-weight="700" fill="#ffffff">800</text>
<text x="925" y="382" text-anchor="middle" font-size="9" font-family="monospace" fill="#ffffff" fill-opacity="0.85">#1f2937</text>
<rect x="976.3" y="324" width="82.8" height="84" rx="10" fill="#111827" stroke="#e5e7eb" stroke-width="0.75"/>
<text x="1018" y="358" text-anchor="middle" font-size="12" font-weight="700" fill="#ffffff">900</text>
<text x="1018" y="382" text-anchor="middle" font-size="9" font-family="monospace" fill="#ffffff" fill-opacity="0.85">#111827</text>
<rect x="1069.2" y="324" width="82.8" height="84" rx="10" fill="#000000" stroke="#e5e7eb" stroke-width="0.75"/>
<text x="1111" y="358" text-anchor="middle" font-size="12" font-weight="700" fill="#ffffff">1000</text>
<text x="1111" y="382" text-anchor="middle" font-size="9" font-family="monospace" fill="#ffffff" fill-opacity="0.85">#000000</text>
<text x="48" y="452" font-size="12.5" font-weight="700" letter-spacing="1.5" fill="#374151">SEMANTIC</text>
<rect x="48.0" y="468" width="264.0" height="84" rx="12" fill="#16a34a"/>
<text x="72" y="502" font-size="16" font-weight="700" fill="#ffffff">success</text>
<text x="72" y="524" font-size="12" font-family="monospace" fill="#ffffff" fill-opacity="0.9">#16a34a</text>
<text x="72" y="542" font-size="10" fill="#ffffff" fill-opacity="0.75">semantic-success</text>
<rect x="328.0" y="468" width="264.0" height="84" rx="12" fill="#d97706"/>
<text x="352" y="502" font-size="16" font-weight="700" fill="#ffffff">warning</text>
<text x="352" y="524" font-size="12" font-family="monospace" fill="#ffffff" fill-opacity="0.9">#d97706</text>
<text x="352" y="542" font-size="10" fill="#ffffff" fill-opacity="0.75">semantic-warning</text>
<rect x="608.0" y="468" width="264.0" height="84" rx="12" fill="#dc2626"/>
<text x="632" y="502" font-size="16" font-weight="700" fill="#ffffff">error</text>
<text x="632" y="524" font-size="12" font-family="monospace" fill="#ffffff" fill-opacity="0.9">#dc2626</text>
<text x="632" y="542" font-size="10" fill="#ffffff" fill-opacity="0.75">semantic-error</text>
<rect x="888.0" y="468" width="264.0" height="84" rx="12" fill="#0284c7"/>
<text x="912" y="502" font-size="16" font-weight="700" fill="#ffffff">info</text>
<text x="912" y="524" font-size="12" font-family="monospace" fill="#ffffff" fill-opacity="0.9">#0284c7</text>
<text x="912" y="542" font-size="10" fill="#ffffff" fill-opacity="0.75">semantic-info</text>
<text x="48" y="598" font-size="12" fill="#9ca3af">Brand red <tspan font-family="monospace" fill="#ee1e25" font-weight="700">#ee1e25</tspan> stays in sync with the logo, wordmark &amp; PWA theme color.</text>
</svg>